<svg width="100" height="25" viewBox="0 0 100 25" fill="none" xmlns="http://www.w3.org/2000/svg">
<path d="M22.9956 12.325H18.2918V25H14.5137V12.325H9.89609V9.42632H22.9956V12.325Z" fill="#616161"/>
<path d="M28.2591 25H24.6209V13.4267H28.2591V25ZM24.4056 10.4425C24.4056 9.92904 24.5922 9.50832 24.9653 9.18031C25.3385 8.85229 25.8229 8.68828 26.4185 8.68828C27.014 8.68828 27.4984 8.85229 27.8716 9.18031C28.2447 9.50832 28.4313 9.92904 28.4313 10.4425C28.4313 10.9559 28.2447 11.3766 27.8716 11.7046C27.4984 12.0326 27.014 12.1966 26.4185 12.1966C25.8229 12.1966 25.3385 12.0326 24.9653 11.7046C24.5922 11.3766 24.4056 10.9559 24.4056 10.4425Z" fill="#616161"/>
<path d="M33.9316 13.4267L34.05 14.7851C34.8752 13.7369 35.9838 13.2128 37.376 13.2128C38.847 13.2128 39.8409 13.7939 40.3575 14.9563C41.1469 13.7939 42.2878 13.2128 43.7804 13.2128C46.1412 13.2128 47.354 14.6318 47.4185 17.4699V25H43.7804V17.6945C43.7804 17.1026 43.6799 16.6712 43.479 16.4002C43.2781 16.1293 42.9121 15.9938 42.3811 15.9938C41.6635 15.9938 41.1289 16.3111 40.7773 16.9458L40.7881 17.0955V25H37.1499V17.7159C37.1499 17.1098 37.053 16.6712 36.8593 16.4002C36.6655 16.1293 36.296 15.9938 35.7506 15.9938C35.0546 15.9938 34.5236 16.3111 34.1576 16.9458V25H30.5302V13.4267H33.9316Z" fill="#616161"/>
<path d="M66.8041 12.325H62.1003V25H58.3222V12.325H53.7046V9.42632H66.8041V12.325Z" fill="#616161"/>
<path d="M72.0675 25H68.4294V13.4267H72.0675V25ZM68.2141 10.4425C68.2141 9.92904 68.4007 9.50832 68.7738 9.18031C69.147 8.85229 69.6313 8.68828 70.2269 8.68828C70.8225 8.68828 71.3069 8.85229 71.68 9.18031C72.0532 9.50832 72.2398 9.92904 72.2398 10.4425C72.2398 10.9559 72.0532 11.3766 71.68 11.7046C71.3069 12.0326 70.8225 12.1966 70.2269 12.1966C69.6313 12.1966 69.147 12.0326 68.7738 11.7046C68.4007 11.3766 68.2141 10.9559 68.2141 10.4425Z" fill="#616161"/>
<path d="M77.74 13.4267L77.8584 14.7851C78.6837 13.7369 79.7923 13.2128 81.1844 13.2128C82.6555 13.2128 83.6493 13.7939 84.166 14.9563C84.9553 13.7939 86.0963 13.2128 87.5889 13.2128C89.9497 13.2128 91.1624 14.6318 91.227 17.4699V25H87.5889V17.6945C87.5889 17.1026 87.4884 16.6712 87.2875 16.4002C87.0866 16.1293 86.7206 15.9938 86.1896 15.9938C85.472 15.9938 84.9374 16.3111 84.5858 16.9458L84.5965 17.0955V25H80.9584V17.7159C80.9584 17.1098 80.8615 16.6712 80.6678 16.4002C80.474 16.1293 80.1045 15.9938 79.5591 15.9938C78.8631 15.9938 78.332 16.3111 77.9661 16.9458V25H74.3387V13.4267H77.74Z" fill="#616161"/>
<path d="M93.6739 6.8141C92.7952 8.68798 92.0962 10.9225 92.0962 10.9225C92.0962 10.9225 94.4745 10.3402 96.0159 8.63408C97.5572 6.9279 95.9496 6.02583 95.9496 6.02583C95.9496 6.02583 94.5527 4.94023 93.6739 6.8141Z" fill="#616161"/>
<path d="M88.0914 6.03291C88.5871 8.04072 89.4501 10.2179 89.4501 10.2179C89.4501 10.2179 90.9376 8.28393 91.0642 5.99456C91.1908 3.7052 89.3689 4.00223 89.3689 4.00223C89.3689 4.00223 87.5957 4.02511 88.0914 6.03291Z" fill="#616161"/>
<path d="M97.5314 13.5671C95.4625 13.7842 93.1752 14.3402 93.1752 14.3402C93.1752 14.3402 94.9027 16.0658 97.1684 16.4994C99.4341 16.9329 99.3838 15.099 99.3838 15.099C99.3838 15.099 99.6003 13.3499 97.5314 13.5671Z" fill="#616161"/>
<path d="M2.20762 6.88027C4.20472 7.45941 6.53328 7.80737 6.53328 7.80737C6.53328 7.80737 5.5937 5.55945 3.66298 4.30406C1.73227 3.04868 1.07863 4.76445 1.07863 4.76445C1.07863 4.76445 0.210514 6.30114 2.20762 6.88027Z" fill="#616161"/>
<path d="M2.27666 12.4821C4.19867 11.6909 6.23344 10.5132 6.23344 10.5132C6.23344 10.5132 4.08435 9.34527 1.78796 9.56791C-0.508436 9.79054 0.063135 11.535 0.063135 11.535C0.063135 11.535 0.354638 13.2733 2.27666 12.4821Z" fill="#616161"/>
<path d="M8.34009 2.06787C8.86962 4.06713 9.76931 6.22956 9.76931 6.22956C9.76931 6.22956 11.2239 4.27111 11.3118 1.97996C11.3997 -0.3112 9.58317 0.0161714 9.58317 0.0161714C9.58317 0.0161714 7.81056 0.0686109 8.34009 2.06787Z" fill="#616161"/>
</svg>
